<mxfile host="Electron" modified="2023-05-09T00:53:42.354Z" agent="Mozilla/5.0 (Windows NT 10.0; Win64; x64) AppleWebKit/537.36 (KHTML, like Gecko) draw.io/21.2.8 Chrome/112.0.5615.165 Electron/24.2.0 Safari/537.36" etag="ag59cNhG0Ghsx_Zktsb9" version="21.2.8" type="device">
  <diagram name="Page-1" id="mxROeNvIisjRbD-ZbCHM">
    <mxGraphModel dx="1098" dy="838" grid="1" gridSize="10" guides="1" tooltips="1" connect="1" arrows="1" fold="1" page="1" pageScale="1" pageWidth="850" pageHeight="1100" math="0" shadow="0">
      <root>
        <mxCell id="0" />
        <mxCell id="1" parent="0" />
        <mxCell id="1T5cQGvSUxvu_fGnimmH-5" style="edgeStyle=orthogonalEdgeStyle;rounded=0;orthogonalLoop=1;jettySize=auto;html=1;" edge="1" parent="1" source="1T5cQGvSUxvu_fGnimmH-1" target="1T5cQGvSUxvu_fGnimmH-3">
          <mxGeometry relative="1" as="geometry" />
        </mxCell>
        <mxCell id="1T5cQGvSUxvu_fGnimmH-1" value="Producer" style="rounded=0;whiteSpace=wrap;html=1;" vertex="1" parent="1">
          <mxGeometry x="180" y="390" width="120" height="30" as="geometry" />
        </mxCell>
        <mxCell id="1T5cQGvSUxvu_fGnimmH-2" value="Consumer" style="rounded=0;whiteSpace=wrap;html=1;" vertex="1" parent="1">
          <mxGeometry x="640" y="390" width="120" height="30" as="geometry" />
        </mxCell>
        <mxCell id="1T5cQGvSUxvu_fGnimmH-6" style="edgeStyle=orthogonalEdgeStyle;rounded=0;orthogonalLoop=1;jettySize=auto;html=1;entryX=0;entryY=0.5;entryDx=0;entryDy=0;" edge="1" parent="1" source="1T5cQGvSUxvu_fGnimmH-3" target="1T5cQGvSUxvu_fGnimmH-2">
          <mxGeometry relative="1" as="geometry" />
        </mxCell>
        <mxCell id="1T5cQGvSUxvu_fGnimmH-3" value="" style="sketch=0;outlineConnect=0;fontColor=#232F3E;gradientColor=none;fillColor=#B0084D;strokeColor=none;dashed=0;verticalLabelPosition=bottom;verticalAlign=top;align=center;html=1;fontSize=12;fontStyle=0;aspect=fixed;pointerEvents=1;shape=mxgraph.aws4.queue;" vertex="1" parent="1">
          <mxGeometry x="440" y="381.5" width="78" height="47" as="geometry" />
        </mxCell>
        <mxCell id="1T5cQGvSUxvu_fGnimmH-7" value="" style="sketch=0;pointerEvents=1;shadow=0;dashed=0;html=1;strokeColor=none;fillColor=#505050;labelPosition=center;verticalLabelPosition=bottom;verticalAlign=top;outlineConnect=0;align=center;shape=mxgraph.office.concepts.clock;" vertex="1" parent="1">
          <mxGeometry x="510" y="351.5" width="30" height="30" as="geometry" />
        </mxCell>
        <mxCell id="1T5cQGvSUxvu_fGnimmH-8" value="Send messages" style="text;html=1;align=center;verticalAlign=middle;resizable=0;points=[];autosize=1;strokeColor=none;fillColor=none;" vertex="1" parent="1">
          <mxGeometry x="310" y="380" width="110" height="30" as="geometry" />
        </mxCell>
        <mxCell id="1T5cQGvSUxvu_fGnimmH-9" value="Poll messages" style="text;html=1;align=center;verticalAlign=middle;resizable=0;points=[];autosize=1;strokeColor=none;fillColor=none;" vertex="1" parent="1">
          <mxGeometry x="530" y="380" width="100" height="30" as="geometry" />
        </mxCell>
      </root>
    </mxGraphModel>
  </diagram>
</mxfile>
